<svg width="94" height="20" viewBox="0 0 94 20" fill="none" xmlns="http://www.w3.org/2000/svg">
<g clip-path="url(#clip0)">
<path d="M21.2328 17.7692H17.2634L19.7461 2.28076H23.7153L21.2328 17.7692Z" fill="#00579F"/>
<path d="M35.622 2.6594C34.8391 2.34602 33.5973 2 32.0618 2C28.142 2 25.3817 4.10895 25.3647 7.12412C25.3322 9.3487 27.341 10.5843 28.8435 11.326C30.3792 12.084 30.9012 12.5787 30.9012 13.2543C30.8856 14.2919 29.6603 14.7702 28.5175 14.7702C26.9328 14.7702 26.0836 14.5236 24.7932 13.9464L24.2705 13.6989L23.7151 17.1757C24.646 17.6036 26.3612 17.9834 28.142 18C32.3069 18 35.0184 15.9237 35.0505 12.7105C35.0664 10.9474 34.0056 9.59639 31.7187 8.49242C30.3304 7.78374 29.4802 7.30589 29.4802 6.58079C29.4964 5.9216 30.1993 5.24643 31.7664 5.24643C33.0568 5.21336 34.0049 5.52631 34.7232 5.83948L35.0822 6.00394L35.622 2.6594Z" fill="#00579F"/>
<path d="M40.8985 12.2822C41.2254 11.3924 42.4833 7.94865 42.4833 7.94865C42.4668 7.98172 42.8095 7.04244 43.0055 6.46582L43.2829 7.80039C43.2829 7.80039 44.0346 11.5078 44.1978 12.2822C43.5775 12.2822 41.6826 12.2822 40.8985 12.2822ZM45.7982 2.28076H42.7279C41.7811 2.28076 41.0618 2.56064 40.6533 3.56584L34.7573 17.769H38.9222C38.9222 17.769 39.6079 15.8573 39.7553 15.4456C40.2122 15.4456 44.2638 15.4456 44.8516 15.4456C44.9656 15.9894 45.3252 17.769 45.3252 17.769H49.0005L45.7982 2.28076Z" fill="#00579F"/>
<path d="M13.9482 2.28076L10.0609 12.8424L9.63608 10.7004C8.9174 8.22875 6.66346 5.5434 4.14819 4.20816L7.70882 17.7528H11.9063L18.1454 2.28076H13.9482Z" fill="#00579F"/>
<path d="M6.45162 2.28076H0.0653342L0 2.59371C4.9817 3.87901 8.28099 6.97718 9.63651 10.701L8.24821 3.58271C8.01965 2.59349 7.31725 2.31339 6.45162 2.28076Z" fill="#F4A622"/>
</g>
<path d="M81.9609 2.13892H73.0383V17.8611H81.9609V2.13892Z" fill="#FF5F00"/>
<path d="M73.6049 10C73.6049 6.80556 75.1345 3.97222 77.4855 2.13889C75.7576 0.805556 73.5766 0 71.1972 0C65.5604 0 61 4.47222 61 10C61 15.5278 65.5604 20 71.1972 20C73.5766 20 75.7576 19.1944 77.4855 17.8611C75.1345 16.0556 73.6049 13.1944 73.6049 10Z" fill="#EB001B"/>
<path d="M93.9999 10C93.9999 15.5278 89.4395 20 83.8027 20C81.4233 20 79.2423 19.1944 77.5144 17.8611C79.8938 16.0278 81.395 13.1944 81.395 10C81.395 6.80556 79.8654 3.97222 77.5144 2.13889C79.2423 0.805556 81.4233 0 83.8027 0C89.4395 0 93.9999 4.5 93.9999 10Z" fill="#F79E1B"/>
<defs>
<clipPath id="clip0">
<rect width="49" height="16" fill="white" transform="translate(0 2)"/>
</clipPath>
</defs>
</svg>
